<svg xmlns="http://www.w3.org/2000/svg" viewBox="0 0 300 92" role="img" aria-label="华大九天 Empyrean">
  <rect width="300" height="92" fill="#fff"/>
  <g transform="translate(18 16)">
    <path d="M28 2c16.1 0 27.7 10.6 30.4 24.8H43.8C41.6 19 35.5 14.3 27.5 14.3c-10.9 0-18.5 8.5-18.5 19.8 0 11.2 7.6 19.7 18.5 19.7 8 0 14.1-4.6 16.3-12.3h14.6C55.7 55.5 44.1 66 28 66 11.8 66 0 52.4 0 34.1 0 15.8 11.8 2 28 2Z" fill="#1c5aa6"/>
    <path d="M22.9 22.4c9.9-4.1 21.5 1 25.6 11.1-6.1-3.7-13.7-4-20.1-.9-6.4 3.1-10.8 9.2-11.7 16.2-6.8-9.2-3.8-22.2 6.2-26.4Z" fill="#e33a2e"/>
    <path d="M35.8 38.8c5.9-2.4 12.8.6 15.3 6.7-3.7-2.2-8.1-2.4-12-.5-3.8 1.8-6.4 5.4-7 9.5-4-5.5-2.2-13.2 3.7-15.7Z" fill="#2b84c6"/>
  </g>
  <text x="94" y="43" fill="#1d5fa9" font-family="Arial, 'Microsoft YaHei', sans-serif" font-size="28" font-weight="800">华大九天</text>
  <text x="96" y="68" fill="#1d5fa9" font-family="Arial, Helvetica, sans-serif" font-size="20" font-weight="700" letter-spacing=".3">Empyrean</text>
</svg>
