<svg xmlns="http://www.w3.org/2000/svg" xmlns:xlink="http://www.w3.org/1999/xlink" viewBox="0 0 435.37 181.19"><defs><style>.cls-1{isolation:isolate;}.cls-2{fill:url(#未命名的渐变_2);}.cls-3{mix-blend-mode:multiply;fill:url(#铃琨眄沭噤桢眚_2);}.cls-4{fill:url(#未命名的渐变_4);}.cls-5{fill:#fff;}.cls-6{fill:#234399;}</style><linearGradient id="未命名的渐变_2" x1="135.08" y1="204.78" x2="30.83" y2="-16.82" gradientTransform="translate(-0.12 0.11)" gradientUnits="userSpaceOnUse"><stop offset="0" stop-color="#6cc7e5"/><stop offset="0.01" stop-color="#6bc6e4"/><stop offset="0.48" stop-color="#4580bc"/><stop offset="0.83" stop-color="#2c54a3"/><stop offset="1" stop-color="#234399"/></linearGradient><linearGradient id="铃琨眄沭噤桢眚_2" x1="81.3" y1="133.76" x2="81.32" y2="133.8" gradientTransform="translate(-0.12 0.11)" gradientUnits="userSpaceOnUse"><stop offset="0" stop-color="#2287c1"/><stop offset="1" stop-color="#00a6ce"/></linearGradient><linearGradient id="未命名的渐变_4" x1="81.33" y1="264.94" x2="81.33" y2="63.94" gradientTransform="translate(-0.12 0.11)" gradientUnits="userSpaceOnUse"><stop offset="0" stop-color="#6cc7e5"/><stop offset="1" stop-color="#234399"/></linearGradient></defs><g class="cls-1"><g id="图层_2" data-name="图层 2"><g id="图层_1-2" data-name="图层 1"><path class="cls-2" d="M71.7,177.21,10.92,142.12a19,19,0,0,1-9.49-16.43V55.5a19,19,0,0,1,9.49-16.43L71.7,4a19,19,0,0,1,19,0l60.78,35.09A19,19,0,0,1,161,55.5v70.18a19,19,0,0,1-9.49,16.44L90.68,177.21A19,19,0,0,1,71.7,177.21Z"/><path class="cls-3" d="M81.19,133.91h0Z"/><path class="cls-4" d="M81.19,135.47,15.87,95.54,16,145.06,72,177.21a19,19,0,0,0,19,0l55.55-32.1,0-49.61S81.2,134.54,81.19,135.47Z"/><path class="cls-5" d="M81.19,135.47l-65.3-40,65.3-40,65.3,40Zm-59.81-40,59.81,36.61L141,95.5,81.19,58.9Z"/><path class="cls-5" d="M81.19,181.19A20.41,20.41,0,0,1,71,178.45L10.21,143.36A20.46,20.46,0,0,1,0,125.69V55.5A20.44,20.44,0,0,1,10.21,37.83L71,2.73a20.46,20.46,0,0,1,20.42,0l60.78,35.09a20.48,20.48,0,0,1,10.2,17.68v70.18a20.47,20.47,0,0,1-10.2,17.68L91.4,178.45A20.45,20.45,0,0,1,81.19,181.19Zm0-178.33a17.52,17.52,0,0,0-8.77,2.36L11.64,40.31A17.59,17.59,0,0,0,2.86,55.5v70.19a17.59,17.59,0,0,0,8.77,15.19L72.42,176A17.56,17.56,0,0,0,90,176l60.78-35.09a17.6,17.6,0,0,0,8.77-15.2V55.5a17.6,17.6,0,0,0-8.78-15.2L90,5.21A17.62,17.62,0,0,0,81.19,2.86Z"/><path class="cls-6" d="M233.35,49c-.59.79-1.17,1.59-1.76,2.34A59.72,59.72,0,0,0,252.66,63.9a19.09,19.09,0,0,0-4.36,5.8c-2.56-1.22-5.16-2.5-7.66-3.94v3.46H214V66.61a72.18,72.18,0,0,1-7.13,3.89,25.49,25.49,0,0,0-4.63-5.8c9.79-3.88,19.84-10.32,25.43-18.62ZM210.58,73.8h34.31v22h-6.75V93.64H217.07V96h-6.49Zm6.49,5.58v8.41h21.07V79.38Zm19.9-16a66.09,66.09,0,0,1-9.26-7.61,66.1,66.1,0,0,1-8.78,7.61Z"/><path class="cls-6" d="M304,88.69c2.29,0,2.61-1,2.87-7.71a16.74,16.74,0,0,0,5.75,2.44c-.75,8.89-2.5,11.07-8.14,11.07h-8.14c-6.38,0-8.35-1.7-8.35-7.72V80.55c-2.93,7.18-8.73,12.4-20.91,15.64a19.15,19.15,0,0,0-3.72-5.53c20.27-4.84,20.48-14.68,21-31.49h6.7A93.44,93.44,0,0,1,289.68,75h4.57V86.67c0,1.81.43,2,2.82,2Zm-27.56-9.26h-6.59V48.74h36.44V79.43h-6.92V55.18H276.48Z"/><path class="cls-6" d="M373.35,86v6.38H325V86h20.27V58.47h-17.4V51.88h42.51v6.59H352.49V86Z"/><path class="cls-6" d="M409,83.9c-2,.38-4,.75-6.11,1.07v10.9h-5.64v-10l-11.12,1.81-1.33-6.38c3.4-.37,7.77-1,12.45-1.6V74.06h-5.06c-1.86,0-3.88.32-4.36.8A55.62,55.62,0,0,0,386,69.49c1.17-.38,2-1.81,3-4.15.48-1.12,1.54-3.83,2.66-7.24h-6.07v-6h7.77a54.79,54.79,0,0,0,1.28-5.69l6.12,1.23c-.38,1.48-.7,3-1.12,4.46h9.1v6h-11c-1.27,3.67-2.71,7.18-4,10.27h3.62V61h5.64v7.34h5.32l-.06,5.69h-5.26V79l5.8-.79Zm14.58-17c0,1.6-.05,3.41-.21,5.27,1.81,8.19,5.48,15.32,12,18.46A22,22,0,0,0,431.22,96c-4.84-2.82-8-7.34-10.27-13a30.66,30.66,0,0,1-9.84,13.14,19.87,19.87,0,0,0-4.68-4.25c10.27-7.77,11.17-18.3,11.17-25.06V64.33h6Zm-6.54-7.39a38.83,38.83,0,0,1-4.95,11.06A38.45,38.45,0,0,0,407,66.93c3.62-4.73,5.64-12.55,6.6-20.64l6.06.85c-.32,2.34-.69,4.53-1.17,6.76h11.12l1-.21,4.2,1c-1,5.26-2.39,11.22-3.51,15l-5-1.22c.53-2.34,1.17-5.69,1.75-9Z"/><path class="cls-6" d="M208.55,125.15V113.41h4.27v12.12c0,4.44,1.53,5.94,4,5.94S221,130,221,125.53V113.41h4.09v11.74c0,7.1-3,10-8.24,10S208.55,132.25,208.55,125.15Z"/><path class="cls-6" d="M242.93,113.41h4.35l6.2,11.37,2.14,4.61h.14c-.23-2.22-.54-5-.54-7.47v-8.51h4v21.34h-4.32l-6.18-11.42-2.16-4.58h-.14c.2,2.31.52,5,.52,7.44v8.56h-4Z"/><path class="cls-6" d="M277.22,113.41h4.27v21.34h-4.27Z"/><path class="cls-6" d="M296.66,113.41h4.47L304,123.8c.66,2.36,1.1,4.49,1.79,6.89h.14c.67-2.4,1.16-4.53,1.82-6.89l2.77-10.39h4.32l-6.54,21.34h-5.08Z"/><path class="cls-6" d="M330,113.41h4.27v21.34H330Z"/><path class="cls-6" d="M350.74,132l2.46-2.94a8.33,8.33,0,0,0,5.42,2.37c2.22,0,3.4-.95,3.4-2.45s-1.3-2.08-3.2-2.89L356,124.92c-2.16-.89-4.32-2.62-4.32-5.74,0-3.49,3.06-6.17,7.38-6.17a9.47,9.47,0,0,1,6.69,2.74l-2.16,2.68a6.85,6.85,0,0,0-4.53-1.76c-1.87,0-3.08.84-3.08,2.25s1.52,2.08,3.34,2.8l2.8,1.18c2.59,1.07,4.3,2.71,4.3,5.8,0,3.49-2.92,6.46-7.85,6.46A11.4,11.4,0,0,1,350.74,132Z"/><path class="cls-6" d="M386.42,117h-6v-3.55h16.33V117h-6.06v17.79h-4.27Z"/><path class="cls-6" d="M421.61,129.27h-6.92l-1.5,5.48h-4.33l6.84-21.34h5l6.86,21.34h-4.47Zm-.92-3.31-.64-2.34c-.66-2.22-1.24-4.67-1.87-7h-.12c-.54,2.34-1.18,4.76-1.81,7l-.64,2.34Z"/></g></g></g></svg>